{
  "accessors": [
    {
      "bufferView": 2,
      "componentType": 5126,
      "count": 65532,
      "max": [
        74.36946105957031,
        8.053853034973145,
        4.560000896453857
      ],
      "min": [
        -71.50846099853516,
        -32.90092468261719,
        -3.903156280517578
      ],
      "type": "VEC3"
    },
    {
      "bufferView": 2,
      "byteOffset": 786384,
      "componentType": 5126,
      "count": 65532,
      "max": [
        1.0,
        1.0,
        1.0
      ],
      "min": [
        -1.0,
        -1.0,
        -1.0
      ],
      "type": "VEC3"
    },
    {
      "bufferView": 1,
      "componentType": 5126,
      "count": 65532,
      "max": [
        7.78891658782959,
        2.5477399826049805
      ],
      "min": [
        -6.798713684082031,
        -1.537818431854248
      ],
      "type": "VEC2"
    },
    {
      "bufferView": 0,
      "componentType": 5125,
      "count": 359799,
      "type": "SCALAR"
    },
    {
      "bufferView": 2,
      "byteOffset": 1572768,
      "componentType": 5126,
      "count": 58889,
      "max": [
        74.36799621582031,
        8.053853034973145,
        4.560000896453857
      ],
      "min": [
        -71.60804748535156,
        -32.90092468261719,
        -3.903156042098999
      ],
      "type": "VEC3"
    },
    {
      "bufferView": 2,
      "byteOffset": 2279436,
      "componentType": 5126,
      "count": 58889,
      "max": [
        1.0,
        1.0,
        1.0
      ],
      "min": [
        -1.0,
        -0.9999999403953552,
        -1.0
      ],
      "type": "VEC3"
    },
    {
      "bufferView": 1,
      "byteOffset": 524256,
      "componentType": 5126,
      "count": 58889,
      "max": [
        7.798713684082031,
        2.5477399826049805
      ],
      "min": [
        -6.782301425933838,
        -1.5358338356018066
      ],
      "type": "VEC2"
    },
    {
      "bufferView": 0,
      "byteOffset": 1439196,
      "componentType": 5125,
      "count": 321801,
      "type": "SCALAR"
    },
    {
      "bufferView": 2,
      "byteOffset": 2986104,
      "componentType": 5126,
      "count": 2262,
      "max": [
        3.733410358428955,
        10.29067325592041,
        0.07264163345098495
      ],
      "min": [
        1.7862865924835205,
        8.343550682067871,
        -0.022642096504569054
      ],
      "type": "VEC3"
    },
    {
      "bufferView": 2,
      "byteOffset": 3013248,
      "componentType": 5126,
      "count": 2262,
      "max": [
        1.0,
        1.0,
        1.0
      ],
      "min": [
        -1.0,
        -1.0,
        -1.0
      ],
      "type": "VEC3"
    },
    {
      "bufferView": 1,
      "byteOffset": 995368,
      "componentType": 5126,
      "count": 2262,
      "max": [
        1.4735618829727173,
        1.4735612869262695
      ],
      "min": [
        -0.4735618829727173,
        -0.47356128692626953
      ],
      "type": "VEC2"
    },
    {
      "bufferView": 0,
      "byteOffset": 2726400,
      "componentType": 5125,
      "count": 12096,
      "type": "SCALAR"
    },
    {
      "bufferView": 2,
      "byteOffset": 3040392,
      "componentType": 5126,
      "count": 5046,
      "max": [
        74.37014770507813,
        8.05358600616455,
        -7.210098743438721
      ],
      "min": [
        -71.60870361328125,
        4.250925064086914,
        -11.112895965576172
      ],
      "type": "VEC3"
    },
    {
      "bufferView": 2,
      "byteOffset": 3100944,
      "componentType": 5126,
      "count": 5046,
      "max": [
        1.0,
        1.0,
        1.0
      ],
      "min": [
        -1.0,
        -1.0,
        -1.0
      ],
      "type": "VEC3"
    },
    {
      "bufferView": 1,
      "byteOffset": 1013464,
      "componentType": 5126,
      "count": 5046,
      "max": [
        7.78956937789917,
        0.6857695579528809
      ],
      "min": [
        -6.789568901062012,
        0.30486011505126953
      ],
      "type": "VEC2"
    },
    {
      "bufferView": 0,
      "byteOffset": 2774784,
      "componentType": 5125,
      "count": 27048,
      "type": "SCALAR"
    },
    {
      "bufferView": 2,
      "byteOffset": 3161496,
      "componentType": 5126,
      "count": 21104,
      "max": [
        49.345359802246094,
        4.49671745300293,
        10.732929229736328
      ],
      "min": [
        -85.69951629638672,
        -18.835613250732422,
        -1.2709836959838867
      ],
      "type": "VEC3"
    },
    {
      "bufferView": 2,
      "byteOffset": 3414744,
      "componentType": 5126,
      "count": 21104,
      "max": [
        1.0,
        0.9999119639396667,
        0.9999990463256836
      ],
      "min": [
        -0.999975860118866,
        -0.9999998807907104,
        -0.9999990463256836
      ],
      "type": "VEC3"
    },
    {
      "bufferView": 1,
      "byteOffset": 1053832,
      "componentType": 5126,
      "count": 21104,
      "max": [
        7.252242565155029,
        1.656947135925293
      ],
      "min": [
        -6.252242565155029,
        -0.65735924243927
      ],
      "type": "VEC2"
    },
    {
      "bufferView": 0,
      "byteOffset": 2882976,
      "componentType": 5125,
      "count": 121728,
      "type": "SCALAR"
    },
    {
      "bufferView": 2,
      "byteOffset": 3667992,
      "componentType": 5126,
      "count": 21104,
      "max": [
        49.345359802246094,
        4.49671745300293,
        10.732929229736328
      ],
      "min": [
        -85.69951629638672,
        -18.835613250732422,
        -1.2709836959838867
      ],
      "type": "VEC3"
    },
    {
      "bufferView": 2,
      "byteOffset": 3921240,
      "componentType": 5126,
      "count": 21104,
      "max": [
        1.0,
        0.9999119639396667,
        0.9999990463256836
      ],
      "min": [
        -0.999975860118866,
        -0.9999998807907104,
        -0.9999990463256836
      ],
      "type": "VEC3"
    },
    {
      "bufferView": 1,
      "byteOffset": 1222664,
      "componentType": 5126,
      "count": 21104,
      "max": [
        7.252242565155029,
        1.656947135925293
      ],
      "min": [
        -6.252242565155029,
        -0.65735924243927
      ],
      "type": "VEC2"
    },
    {
      "bufferView": 0,
      "byteOffset": 3369888,
      "componentType": 5125,
      "count": 121728,
      "type": "SCALAR"
    },
    {
      "bufferView": 2,
      "byteOffset": 4174488,
      "componentType": 5126,
      "count": 2262,
      "max": [
        3.733410358428955,
        10.29067325592041,
        0.07264163345098495
      ],
      "min": [
        1.7862865924835205,
        8.343550682067871,
        -0.022642096504569054
      ],
      "type": "VEC3"
    },
    {
      "bufferView": 2,
      "byteOffset": 4201632,
      "componentType": 5126,
      "count": 2262,
      "max": [
        1.0,
        1.0,
        1.0
      ],
      "min": [
        -1.0,
        -1.0,
        -1.0
      ],
      "type": "VEC3"
    },
    {
      "bufferView": 1,
      "byteOffset": 1391496,
      "componentType": 5126,
      "count": 2262,
      "max": [
        1.4735618829727173,
        1.4735612869262695
      ],
      "min": [
        -0.4735618829727173,
        -0.47356128692626953
      ],
      "type": "VEC2"
    },
    {
      "bufferView": 0,
      "byteOffset": 3856800,
      "componentType": 5125,
      "count": 12096,
      "type": "SCALAR"
    }
  ],
  "asset": {
    "extras": {
      "author": "Diyarov Alen (https://sketchfab.com/diyarovalen)",
      "license": "CC-BY-4.0 (http://creativecommons.org/licenses/by/4.0/)",
      "source": "https://sketchfab.com/3d-models/matrix-resurrections-bugs-sunglasses-7a0f9189a34c495388affaaaefb3baf0",
      "title": "Matrix Resurrections Bugs sunglasses"
    },
    "generator": "Sketchfab-13.82.0",
    "version": "2.0"
  },
  "bufferViews": [
    {
      "buffer": 0,
      "byteLength": 3905184,
      "name": "floatBufferViews",
      "target": 34963
    },
    {
      "buffer": 0,
      "byteLength": 1409592,
      "byteOffset": 3905184,
      "byteStride": 8,
      "name": "floatBufferViews",
      "target": 34962
    },
    {
      "buffer": 0,
      "byteLength": 4228776,
      "byteOffset": 5314776,
      "byteStride": 12,
      "name": "floatBufferViews",
      "target": 34962
    }
  ],
  "buffers": [
    {
      "byteLength": 9543552,
      "uri": "scene.bin"
    }
  ],
  "materials": [
    {
      "doubleSided": true,
      "name": "01_-_Default",
      "pbrMetallicRoughness": {
        "baseColorFactor": [
          0.0117647,
          0.0117647,
          0.0117647,
          1.0
        ],
        "metallicFactor": 0.0,
        "roughnessFactor": 0.12305629651181041
      }
    },
    {
      "alphaMode": "BLEND",
      "doubleSided": true,
      "name": "03_-_Default",
      "pbrMetallicRoughness": {
        "baseColorFactor": [
          0.0,
          0.0,
          0.27451,
          0.7117842799060397
        ],
        "metallicFactor": 0.0,
        "roughnessFactor": 0.0
      }
    },
    {
      "doubleSided": true,
      "name": "02_-_Default",
      "pbrMetallicRoughness": {
        "baseColorFactor": [
          0.588235,
          0.588235,
          0.588235,
          1.0
        ],
        "roughnessFactor": 0.28085967350407803
      }
    }
  ],
  "meshes": [
    {
      "name": "Plane003_01 - Default_0",
      "primitives": [
        {
          "attributes": {
            "NORMAL": 1,
            "POSITION": 0,
            "TEXCOORD_0": 2
          },
          "indices": 3,
          "material": 0,
          "mode": 4
        }
      ]
    },
    {
      "name": "Plane003_01 - Default_0",
      "primitives": [
        {
          "attributes": {
            "NORMAL": 5,
            "POSITION": 4,
            "TEXCOORD_0": 6
          },
          "indices": 7,
          "material": 0,
          "mode": 4
        }
      ]
    },
    {
      "name": "Object001_03 - Default_0",
      "primitives": [
        {
          "attributes": {
            "NORMAL": 9,
            "POSITION": 8,
            "TEXCOORD_0": 10
          },
          "indices": 11,
          "material": 1,
          "mode": 4
        }
      ]
    },
    {
      "name": "Object007_02 - Default_0",
      "primitives": [
        {
          "attributes": {
            "NORMAL": 13,
            "POSITION": 12,
            "TEXCOORD_0": 14
          },
          "indices": 15,
          "material": 2,
          "mode": 4
        }
      ]
    },
    {
      "name": "Plane005_01 - Default_0",
      "primitives": [
        {
          "attributes": {
            "NORMAL": 17,
            "POSITION": 16,
            "TEXCOORD_0": 18
          },
          "indices": 19,
          "material": 0,
          "mode": 4
        }
      ]
    },
    {
      "name": "Plane007_01 - Default_0",
      "primitives": [
        {
          "attributes": {
            "NORMAL": 21,
            "POSITION": 20,
            "TEXCOORD_0": 22
          },
          "indices": 23,
          "material": 0,
          "mode": 4
        }
      ]
    },
    {
      "name": "Object008_03 - Default_0",
      "primitives": [
        {
          "attributes": {
            "NORMAL": 25,
            "POSITION": 24,
            "TEXCOORD_0": 26
          },
          "indices": 27,
          "material": 1,
          "mode": 4
        }
      ]
    }
  ],
  "nodes": [
    {
      "children": [
        1
      ],
      "matrix": [
        1.0,
        0.0,
        0.0,
        0.0,
        0.0,
        2.220446049250313e-16,
        -1.0,
        0.0,
        0.0,
        1.0,
        2.220446049250313e-16,
        0.0,
        0.0,
        0.0,
        0.0,
        1.0
      ],
      "name": "Sketchfab_model"
    },
    {
      "children": [
        2
      ],
      "matrix": [
        0.0010000000474974513,
        0.0,
        0.0,
        0.0,
        0.0,
        0.0,
        0.0010000000474974513,
        0.0,
        0.0,
        -0.0010000000474974513,
        0.0,
        0.0,
        0.0,
        0.0,
        0.0,
        1.0
      ],
      "name": "47fbba69d6b0417d8be969399cb01ec9.fbx"
    },
    {
      "children": [
        3,
        7,
        10,
        13,
        15,
        17
      ],
      "name": "RootNode"
    },
    {
      "children": [
        4
      ],
      "matrix": [
        0.9999999999991815,
        -1.224646799146326e-16,
        1.2795156864142588e-06,
        -0.0,
        1.5380536515497085e-14,
        1.0,
        -1.19248806384933e-08,
        -0.0,
        1.2795156864142588e-06,
        -1.192488063850322e-08,
        -0.9999999999991813,
        -0.0,
        0.0,
        -6.3571319580078125,
        65.04568481445313,
        1.0
      ],
      "name": "Plane003"
    },
    {
      "children": [
        5,
        6
      ],
      "matrix": [
        1.0,
        0.0,
        -0.0,
        0.0,
        0.0,
        1.0,
        0.0,
        0.0,
        0.0,
        0.0,
        1.0,
        0.0,
        -1.3807106018066406,
        12.47344970703125,
        -0.550817608833313,
        1.0
      ],
      "name": "Object_4"
    },
    {
      "mesh": 0,
      "name": "Plane003_01 - Default_0"
    },
    {
      "mesh": 1,
      "name": "Plane003_01 - Default_0"
    },
    {
      "children": [
        8
      ],
      "matrix": [
        25.399999618530273,
        0.0,
        0.0,
        0.0,
        0.0,
        25.399999618529936,
        4.138185436920307e-06,
        0.0,
        0.0,
        -4.138185436920307e-06,
        25.399999618529936,
        0.0,
        -34.82855224609375,
        1.8503875732421875,
        67.52401733398438,
        1.0
      ],
      "name": "Object001"
    },
    {
      "children": [
        9
      ],
      "matrix": [
        1.0,
        0.0,
        -0.0,
        0.0,
        0.0,
        1.0,
        0.0,
        0.0,
        0.0,
        0.0,
        1.0,
        0.0,
        -2.7598483562469482,
        -9.31711196899414,
        -0.02499992772936821,
        1.0
      ],
      "name": "Object_8"
    },
    {
      "mesh": 2,
      "name": "Object001_03 - Default_0"
    },
    {
      "children": [
        11
      ],
      "matrix": [
        0.9999999999996249,
        -5.6843418807744005e-14,
        -8.662515256215944e-07,
        0.0,
        -2.1508720507165572e-13,
        0.9999999999999507,
        -3.139164732601048e-07,
        0.0,
        8.662515256215696e-07,
        3.1391647326017333e-07,
        0.9999999999995756,
        0.0,
        0.0,
        12.268569946289063,
        67.54823303222656,
        1.0
      ],
      "name": "Object007"
    },
    {
      "children": [
        12
      ],
      "matrix": [
        1.0,
        0.0,
        -0.0,
        0.0,
        0.0,
        1.0,
        0.0,
        0.0,
        0.0,
        0.0,
        1.0,
        0.0,
        -1.3807220458984375,
        -6.1522536277771,
        9.161453247070313,
        1.0
      ],
      "name": "Object_11"
    },
    {
      "mesh": 3,
      "name": "Object007_02 - Default_0"
    },
    {
      "children": [
        14
      ],
      "matrix": [
        -1.1924880749525357e-08,
        -8.271806125530277e-25,
        0.9999999999999999,
        -0.0,
        1.1924880760967733e-08,
        1.0,
        1.4220278218129281e-16,
        -0.0,
        0.9999999999999999,
        -1.1924880760967733e-08,
        1.192488086054766e-08,
        -0.0,
        -71.71843719482422,
        9.672378540039063,
        16.199798583984375,
        1.0
      ],
      "name": "Plane005"
    },
    {
      "mesh": 4,
      "name": "Plane005_01 - Default_0"
    },
    {
      "children": [
        16
      ],
      "matrix": [
        1.6338684088293572e-07,
        0.0,
        1.0000001192092762,
        0.0,
        -1.7136333346195355e-07,
        0.9999999999999853,
        2.799851036913895e-14,
        0.0,
        -1.0000001192092616,
        -1.7136335389005707e-07,
        1.6338684088293572e-07,
        0.0,
        71.71842956542969,
        9.672378540039063,
        16.199798583984375,
        1.0
      ],
      "name": "Plane007"
    },
    {
      "mesh": 5,
      "name": "Plane007_01 - Default_0"
    },
    {
      "children": [
        18
      ],
      "matrix": [
        25.399999618530273,
        0.0,
        0.0,
        0.0,
        0.0,
        25.399999618529936,
        4.138185436920307e-06,
        0.0,
        0.0,
        -4.138185436920307e-06,
        25.399999618529936,
        0.0,
        34.82899856567383,
        1.8503875732421875,
        67.52401733398438,
        1.0
      ],
      "name": "Object008"
    },
    {
      "children": [
        19
      ],
      "matrix": [
        1.0,
        0.0,
        -0.0,
        0.0,
        0.0,
        1.0,
        0.0,
        0.0,
        0.0,
        0.0,
        1.0,
        0.0,
        -2.7598483562469482,
        -9.31711196899414,
        -0.02499992772936821,
        1.0
      ],
      "name": "Object_18"
    },
    {
      "mesh": 6,
      "name": "Object008_03 - Default_0"
    }
  ],
  "scene": 0,
  "scenes": [
    {
      "name": "Sketchfab_Scene",
      "nodes": [
        0
      ]
    }
  ]
}
